@startuml

class Bank {
	id: INTEGER [PK][NOT NULL]
	name: TEXT
}

class Account {
	number: TEXT [PK][NOT NULL]
	name: TEXT
	balance: REAL
	bank_id: INTEGER [FK][NOT NULL]
}

class Transaction {
	'Financial Institut Transaction ID
	FITID: TEXT [PK][NOT NULL]
	date: TEXT [NOT NULL]
	description: TEXT [NOT NULL]
	amount: REAL [NOT NULL]
	account_number: TEXT [FK][NOT NULL]
	label_name: TEXT [FK]
}

class Category {
	name: TEXT [PK]
	description: TEXT
}

class Label {
	name: TEXT [PK]
	category_name: TEXT [FK]
}


Bank "1" -- "0..*" Account
Account "1" -- "0..*" Transaction
Transaction "0..*" -- "1" Label
Label "0..*" -- "1" Category

@enduml